<svg width="124" height="36" viewBox="0 0 124 36" fill="none" xmlns="http://www.w3.org/2000/svg">
<g clip-path="url(#clip0_9_4317)">
<path d="M60.4542 12.1461V24.0098H58.2877L53.1263 16.5429H53.0394V24.0098H50.5311V12.1461H52.7324L57.8532 19.6072H57.9575V12.1461H60.4542ZM66.1752 24.1835C65.2599 24.1835 64.4721 23.9982 63.8117 23.6274C63.1552 23.2528 62.6493 22.7238 62.294 22.0402C61.9387 21.3528 61.761 20.5399 61.761 19.6015C61.761 18.6862 61.9387 17.8829 62.294 17.1917C62.6493 16.5004 63.1494 15.9616 63.7943 15.5755C64.4431 15.1893 65.2039 14.9962 66.0767 14.9962C66.6637 14.9962 67.2101 15.0908 67.716 15.28C68.2258 15.4654 68.6699 15.7454 69.0484 16.12C69.4307 16.4946 69.7281 16.9657 69.9405 17.5334C70.1529 18.0973 70.2591 18.7576 70.2591 19.5146V20.1923H62.7458V18.663H67.9362C67.9362 18.3077 67.8589 17.993 67.7044 17.7188C67.55 17.4446 67.3356 17.2303 67.0614 17.0758C66.7911 16.9175 66.4764 16.8383 66.1172 16.8383C65.7426 16.8383 65.4105 16.9252 65.1209 17.099C64.8351 17.2689 64.6111 17.4987 64.4489 17.7883C64.2867 18.0741 64.2037 18.3927 64.1998 18.7441V20.1981C64.1998 20.6384 64.2809 21.0188 64.4431 21.3393C64.6092 21.6598 64.8428 21.907 65.144 22.0808C65.4453 22.2545 65.8025 22.3414 66.2157 22.3414C66.4899 22.3414 66.7409 22.3028 66.9688 22.2256C67.1966 22.1483 67.3916 22.0325 67.5538 21.878C67.716 21.7235 67.8396 21.5343 67.9246 21.3103L70.2069 21.4609C70.0911 22.0093 69.8536 22.4882 69.4944 22.8975C69.1391 23.303 68.6796 23.6197 68.1157 23.8476C67.5558 24.0716 66.9089 24.1835 66.1752 24.1835ZM73.4124 15.112L75.046 18.2228L76.7201 15.112H79.2515L76.6737 19.5609L79.321 24.0098H76.8012L75.046 20.9338L73.3197 24.0098H70.7709L73.4124 19.5609L70.8636 15.112H73.4124ZM86.063 20.2213V15.112H88.5307V24.0098H86.1615V22.3936H86.0688C85.868 22.9149 85.5339 23.3339 85.0666 23.6506C84.6032 23.9673 84.0375 24.1256 83.3694 24.1256C82.7746 24.1256 82.2513 23.9905 81.7995 23.7201C81.3477 23.4498 80.9943 23.0655 80.7394 22.5674C80.4884 22.0692 80.361 21.4725 80.3571 20.7774V15.112H82.8248V20.3371C82.8287 20.8623 82.9697 21.2775 83.2477 21.5826C83.5258 21.8877 83.8984 22.0402 84.3657 22.0402C84.6631 22.0402 84.9411 21.9726 85.1999 21.8375C85.4586 21.6984 85.6672 21.4938 85.8255 21.2234C85.9877 20.9531 86.0669 20.6191 86.063 20.2213ZM97.5478 17.6493L95.2886 17.7883C95.25 17.5952 95.167 17.4214 95.0395 17.267C94.9121 17.1086 94.7441 16.9831 94.5356 16.8904C94.3309 16.7939 94.0857 16.7456 93.7999 16.7456C93.4176 16.7456 93.0951 16.8267 92.8325 16.9889C92.5699 17.1472 92.4386 17.3596 92.4386 17.6261C92.4386 17.8385 92.5235 18.0181 92.6935 18.1648C92.8634 18.3116 93.155 18.4294 93.5682 18.5182L95.1786 18.8426C96.0436 19.0202 96.6886 19.306 97.1134 19.6999C97.5382 20.0938 97.7506 20.6113 97.7506 21.2524C97.7506 21.8355 97.5787 22.3472 97.235 22.7875C96.8952 23.2277 96.4279 23.5714 95.8332 23.8186C95.2423 24.0619 94.5607 24.1835 93.7883 24.1835C92.6104 24.1835 91.672 23.9383 90.973 23.4479C90.2779 22.9535 89.8704 22.2816 89.7507 21.432L92.1779 21.3045C92.2513 21.6637 92.4289 21.9379 92.7108 22.1271C92.9928 22.3125 93.3538 22.4052 93.7941 22.4052C94.2266 22.4052 94.5742 22.3221 94.8368 22.1561C95.1033 21.9862 95.2384 21.768 95.2423 21.5015C95.2384 21.2775 95.1438 21.0941 94.9584 20.9512C94.7731 20.8044 94.4873 20.6924 94.1011 20.6152L92.5602 20.3082C91.6913 20.1344 91.0444 19.8332 90.6196 19.4045C90.1987 18.9758 89.9882 18.4294 89.9882 17.7651C89.9882 17.1936 90.1427 16.7012 90.4516 16.288C90.7645 15.8748 91.2028 15.5562 91.7666 15.3322C92.3343 15.1082 92.9985 14.9962 93.7593 14.9962C94.8831 14.9962 95.7675 15.2337 96.4124 15.7087C97.0612 16.1837 97.4397 16.8306 97.5478 17.6493ZM104.451 24.0098H101.763L105.859 12.1461H109.091L113.181 24.0098H110.493L107.521 14.8572H107.429L104.451 24.0098ZM104.283 19.3466H110.632V21.3045H104.283V19.3466ZM114.25 24.0098V15.112H116.718V24.0098H114.25ZM115.49 13.9651C115.123 13.9651 114.808 13.8434 114.546 13.6001C114.287 13.353 114.158 13.0575 114.158 12.7138C114.158 12.374 114.287 12.0824 114.546 11.8391C114.808 11.592 115.123 11.4684 115.49 11.4684C115.857 11.4684 116.17 11.592 116.428 11.8391C116.691 12.0824 116.822 12.374 116.822 12.7138C116.822 13.0575 116.691 13.353 116.428 13.6001C116.17 13.8434 115.857 13.9651 115.49 13.9651Z" fill="white"/>
<g clip-path="url(#clip1_9_4317)">
<path d="M14.5 28.2598C15.7426 28.2598 16.75 27.2524 16.75 26.0098C16.75 24.7671 15.7426 23.7598 14.5 23.7598C13.2574 23.7598 12.25 24.7671 12.25 26.0098C12.25 27.2524 13.2574 28.2598 14.5 28.2598Z" fill="#1A5EFF" stroke="#1A5EFF" stroke-width="0.5"/>
<path d="M23.9996 34.2597H24C29.1592 34.2597 33.4359 30.2286 33.7336 25.0821L33.748 24.8326L33.4985 24.8181L31.5015 24.7021L31.2519 24.6876L31.2374 24.9372C31.0161 28.7626 27.837 31.7595 24.0003 31.7597C22.8463 31.7582 21.7092 31.482 20.6831 30.954C19.657 30.426 18.7713 29.6613 18.0993 28.7231L17.9537 28.5199L17.7505 28.6654L16.1245 29.8294L15.9211 29.975L16.0668 30.1783C16.9707 31.439 18.1614 32.4665 19.5408 33.1762C20.9201 33.8858 22.4484 34.2572 23.9996 34.2597Z" fill="#1A5EFF" stroke="#1A5EFF" stroke-width="0.5"/>
<path d="M38.5 29.0098C39.6046 29.0098 40.5 28.1143 40.5 27.0098C40.5 25.9052 39.6046 25.0098 38.5 25.0098C37.3954 25.0098 36.5 25.9052 36.5 27.0098C36.5 28.1143 37.3954 29.0098 38.5 29.0098Z" fill="#1A5EFF"/>
<mask id="path-5-outside-1_9_4317" maskUnits="userSpaceOnUse" x="20.5" y="10.0098" width="22" height="16" fill="black">
<rect fill="white" x="20.5" y="10.0098" width="22" height="16"/>
<path d="M41.141 23.1048L39.217 22.5598C39.4056 21.8928 39.5008 21.2029 39.5 20.5098C39.5 16.3748 36.136 13.0098 32 13.0098C30.9349 13.006 29.8816 13.2322 28.912 13.6728L28.088 11.8508C29.3165 11.293 30.6508 11.0061 32 11.0098C37.238 11.0098 41.5 15.2718 41.5 20.5098C41.5 21.3898 41.38 22.2638 41.141 23.1048ZM30.914 18.5948L27.914 15.5948C27.537 15.2188 27.034 15.0098 26.5 15.0098C25.966 15.0098 25.463 15.2178 25.086 15.5958L22.086 18.5958C21.696 18.9858 21.5 19.4978 21.5 20.0098C21.5 20.5218 21.696 21.0338 22.086 21.4238L25.086 24.4238C25.463 24.8018 25.966 25.0098 26.5 25.0098C27.034 25.0098 27.537 24.8018 27.914 24.4238L30.914 21.4238C31.304 21.0338 31.5 20.5218 31.5 20.0098C31.5 19.4978 31.304 18.9858 30.914 18.5958M26.5 23.0098L23.5 20.0098L26.5 17.0098L29.5 20.0098L26.5 23.0098Z"/>
</mask>
<path d="M41.141 23.1048L39.217 22.5598C39.4056 21.8928 39.5008 21.2029 39.5 20.5098C39.5 16.3748 36.136 13.0098 32 13.0098C30.9349 13.006 29.8816 13.2322 28.912 13.6728L28.088 11.8508C29.3165 11.293 30.6508 11.0061 32 11.0098C37.238 11.0098 41.5 15.2718 41.5 20.5098C41.5 21.3898 41.38 22.2638 41.141 23.1048ZM30.914 18.5948L27.914 15.5948C27.537 15.2188 27.034 15.0098 26.5 15.0098C25.966 15.0098 25.463 15.2178 25.086 15.5958L22.086 18.5958C21.696 18.9858 21.5 19.4978 21.5 20.0098C21.5 20.5218 21.696 21.0338 22.086 21.4238L25.086 24.4238C25.463 24.8018 25.966 25.0098 26.5 25.0098C27.034 25.0098 27.537 24.8018 27.914 24.4238L30.914 21.4238C31.304 21.0338 31.5 20.5218 31.5 20.0098C31.5 19.4978 31.304 18.9858 30.914 18.5958M26.5 23.0098L23.5 20.0098L26.5 17.0098L29.5 20.0098L26.5 23.0098Z" fill="#1A5EFF"/>
<path d="M41.141 23.1048L41.0047 23.5859L41.4854 23.722L41.622 23.2415L41.141 23.1048ZM39.217 22.5598L38.7359 22.4237L38.5999 22.9047L39.0807 23.0409L39.217 22.5598ZM39.5 20.5098L39 20.5098L39 20.5104L39.5 20.5098ZM32 13.0098L31.9982 13.5098H32V13.0098ZM28.912 13.6728L28.4564 13.8788L28.6628 14.3352L29.1189 14.128L28.912 13.6728ZM28.088 11.8508L27.8813 11.3955L27.4267 11.6019L27.6324 12.0568L28.088 11.8508ZM32 11.0098L31.9986 11.5098H32V11.0098ZM27.914 15.5948L28.2676 15.2412L28.2671 15.2408L27.914 15.5948ZM25.086 15.5958L25.4396 15.9494L25.44 15.9489L25.086 15.5958ZM25.086 24.4238L25.44 24.0707L25.4396 24.0702L25.086 24.4238ZM27.914 24.4238L27.5604 24.0702L27.56 24.0707L27.914 24.4238ZM26.5 23.0098L26.1464 23.3634L26.5 23.7169L26.8536 23.3634L26.5 23.0098ZM23.5 20.0098L23.1464 19.6562L22.7929 20.0098L23.1464 20.3634L23.5 20.0098ZM26.5 17.0098L26.8536 16.6562L26.5 16.3027L26.1464 16.6562L26.5 17.0098ZM29.5 20.0098L29.8536 20.3634L30.2071 20.0098L29.8536 19.6562L29.5 20.0098ZM41.2773 22.6237L39.3533 22.0787L39.0807 23.0409L41.0047 23.5859L41.2773 22.6237ZM39.6981 22.6959C39.8993 21.9844 40.0009 21.2485 40 20.5092L39 20.5104C39.0008 21.1573 38.9119 21.8012 38.7359 22.4237L39.6981 22.6959ZM40 20.5098C40 16.0987 36.4122 12.5098 32 12.5098V13.5098C35.8598 13.5098 39 16.6509 39 20.5098H40ZM32.0018 12.5098C30.8648 12.5057 29.7403 12.7472 28.7051 13.2176L29.1189 14.128C30.023 13.7171 31.0051 13.5063 31.9982 13.5098L32.0018 12.5098ZM29.3676 13.4668L28.5436 11.6448L27.6324 12.0568L28.4564 13.8788L29.3676 13.4668ZM28.2947 12.3061C29.4579 11.7779 30.7212 11.5063 31.9986 11.5098L32.0014 10.5098C30.5803 10.5059 29.1752 10.808 27.8813 11.3955L28.2947 12.3061ZM32 11.5098C36.9619 11.5098 41 15.5479 41 20.5098H42C42 14.9957 37.5141 10.5098 32 10.5098V11.5098ZM41 20.5098C41 21.3444 40.8862 22.1724 40.66 22.9681L41.622 23.2415C41.8738 22.3552 42 21.4352 42 20.5098H41ZM31.2676 18.2412L28.2676 15.2412L27.5604 15.9484L30.5604 18.9484L31.2676 18.2412ZM28.2671 15.2408C27.7967 14.7716 27.1668 14.5098 26.5 14.5098V15.5098C26.9012 15.5098 27.2773 15.666 27.5609 15.9488L28.2671 15.2408ZM26.5 14.5098C25.8337 14.5098 25.2031 14.7703 24.732 15.2427L25.44 15.9489C25.7229 15.6653 26.0983 15.5098 26.5 15.5098V14.5098ZM24.7324 15.2422L21.7324 18.2422L22.4396 18.9494L25.4396 15.9494L24.7324 15.2422ZM21.7324 18.2422C21.2451 18.7296 21 19.3703 21 20.0098H22C22 19.6253 22.1469 19.242 22.4396 18.9494L21.7324 18.2422ZM21 20.0098C21 20.6493 21.2451 21.29 21.7324 21.7774L22.4396 21.0702C22.1469 20.7776 22 20.3943 22 20.0098H21ZM21.7324 21.7774L24.7324 24.7774L25.4396 24.0702L22.4396 21.0702L21.7324 21.7774ZM24.732 24.7769C25.2031 25.2493 25.8337 25.5098 26.5 25.5098V24.5098C26.0983 24.5098 25.7229 24.3543 25.44 24.0707L24.732 24.7769ZM26.5 25.5098C27.1663 25.5098 27.7969 25.2493 28.268 24.7769L27.56 24.0707C27.2771 24.3543 26.9017 24.5098 26.5 24.5098V25.5098ZM28.2676 24.7774L31.2676 21.7774L30.5604 21.0702L27.5604 24.0702L28.2676 24.7774ZM31.2676 21.7774C31.7549 21.29 32 20.6493 32 20.0098H31C31 20.3943 30.8531 20.7776 30.5604 21.0702L31.2676 21.7774ZM32 20.0098C32 19.3703 31.7549 18.7296 31.2676 18.2422L30.5604 18.9494C30.8531 19.242 31 19.6253 31 20.0098H32ZM26.8536 22.6562L23.8536 19.6562L23.1464 20.3634L26.1464 23.3634L26.8536 22.6562ZM23.8536 20.3634L26.8536 17.3634L26.1464 16.6562L23.1464 19.6562L23.8536 20.3634ZM26.1464 17.3634L29.1464 20.3634L29.8536 19.6562L26.8536 16.6562L26.1464 17.3634ZM29.1464 19.6562L26.1464 22.6562L26.8536 23.3634L29.8536 20.3634L29.1464 19.6562Z" fill="#1A5EFF" mask="url(#path-5-outside-1_9_4317)"/>
<path d="M26.5 9.25977C27.7426 9.25977 28.75 8.25241 28.75 7.00977C28.75 5.76712 27.7426 4.75977 26.5 4.75977C25.2574 4.75977 24.25 5.76712 24.25 7.00977C24.25 8.25241 25.2574 9.25977 26.5 9.25977Z" fill="#1A5EFF" stroke="#1A5EFF" stroke-width="0.5"/>
<path d="M13.25 15.5098C13.2485 17.2766 13.7277 19.0106 14.6362 20.526C15.5447 22.0414 16.8483 23.2812 18.4074 24.1125L18.6276 24.2299L18.7454 24.0098L19.6894 22.2458L19.8074 22.0253L19.5868 21.9074C18.1936 21.1628 17.0816 19.9836 16.4199 18.5491C15.7582 17.1146 15.5831 15.5033 15.921 13.9601C16.259 12.417 17.0916 11.0263 18.2922 9.99971C19.4929 8.97308 20.996 8.36659 22.5729 8.27243L22.8221 8.25756L22.8076 8.00838L22.6916 6.01138L22.6771 5.76181L22.4275 5.7763C17.2811 6.07498 13.2501 10.3506 13.25 15.5098ZM13.25 15.5098C13.25 15.5098 13.25 15.5098 13.25 15.5099H13.5L13.25 15.5097C13.25 15.5097 13.25 15.5097 13.25 15.5098ZM18.306 23.7714L18.3046 23.7739L18.4996 23.8783C18.4346 23.8434 18.37 23.8077 18.306 23.7714Z" fill="#1A5EFF" stroke="#1A5EFF" stroke-width="0.5"/>
</g>
</g>
<defs>
<clipPath id="clip0_9_4317">
<rect width="123" height="36" fill="white" transform="translate(0.5 0.00976562)"/>
</clipPath>
<clipPath id="clip1_9_4317">
<rect width="32" height="32" fill="white" transform="translate(10.5 4.00977)"/>
</clipPath>
</defs>
</svg>
