<svg width="123" height="36" viewBox="0 0 123 36" fill="none" xmlns="http://www.w3.org/2000/svg">
<path d="M59.9542 12.1364V24H57.7877L52.6263 16.5331H52.5394V24H50.0311V12.1364H52.2324L57.3532 19.5975H57.4575V12.1364H59.9542ZM65.6752 24.1738C64.7599 24.1738 63.9721 23.9884 63.3117 23.6177C62.6552 23.2431 62.1493 22.714 61.794 22.0305C61.4387 21.343 61.261 20.5301 61.261 19.5917C61.261 18.6764 61.4387 17.8732 61.794 17.1819C62.1493 16.4906 62.6494 15.9519 63.2943 15.5657C63.9431 15.1795 64.7039 14.9864 65.5767 14.9864C66.1637 14.9864 66.7101 15.081 67.216 15.2703C67.7258 15.4556 68.1699 15.7356 68.5484 16.1102C68.9307 16.4848 69.2281 16.956 69.4405 17.5237C69.6529 18.0875 69.7591 18.7479 69.7591 19.5048V20.1826H62.2458V18.6533H67.4362C67.4362 18.298 67.3589 17.9832 67.2044 17.709C67.05 17.4348 66.8356 17.2205 66.5614 17.066C66.2911 16.9077 65.9764 16.8285 65.6172 16.8285C65.2426 16.8285 64.9105 16.9154 64.6209 17.0892C64.3351 17.2591 64.1111 17.4889 63.9489 17.7785C63.7867 18.0643 63.7037 18.3829 63.6998 18.7344V20.1883C63.6998 20.6286 63.7809 21.009 63.9431 21.3295C64.1092 21.6501 64.3428 21.8972 64.644 22.071C64.9453 22.2448 65.3025 22.3317 65.7157 22.3317C65.9899 22.3317 66.2409 22.2931 66.4688 22.2158C66.6966 22.1386 66.8916 22.0227 67.0538 21.8683C67.216 21.7138 67.3396 21.5245 67.4246 21.3006L69.7069 21.4512C69.5911 21.9996 69.3536 22.4784 68.9944 22.8878C68.6391 23.2933 68.1796 23.61 67.6157 23.8378C67.0558 24.0618 66.4089 24.1738 65.6752 24.1738ZM72.9124 15.1023L74.546 18.213L76.2201 15.1023H78.7515L76.1737 19.5511L78.821 24H76.3012L74.546 20.924L72.8197 24H70.2709L72.9124 19.5511L70.3636 15.1023H72.9124ZM85.563 20.2115V15.1023H88.0307V24H85.6615V22.3838H85.5688C85.368 22.9052 85.0339 23.3242 84.5666 23.6408C84.1032 23.9575 83.5375 24.1159 82.8694 24.1159C82.2746 24.1159 81.7513 23.9807 81.2995 23.7104C80.8477 23.44 80.4943 23.0558 80.2394 22.5576C79.9884 22.0594 79.861 21.4628 79.8571 20.7676V15.1023H82.3248V20.3274C82.3287 20.8526 82.4697 21.2677 82.7477 21.5728C83.0258 21.8779 83.3984 22.0305 83.8657 22.0305C84.1631 22.0305 84.4411 21.9629 84.6999 21.8277C84.9586 21.6887 85.1672 21.484 85.3255 21.2137C85.4877 20.9433 85.5669 20.6093 85.563 20.2115ZM97.0478 17.6395L94.7886 17.7785C94.75 17.5854 94.667 17.4117 94.5395 17.2572C94.4121 17.0989 94.2441 16.9733 94.0356 16.8807C93.8309 16.7841 93.5857 16.7358 93.2999 16.7358C92.9176 16.7358 92.5951 16.8169 92.3325 16.9791C92.0699 17.1375 91.9386 17.3499 91.9386 17.6163C91.9386 17.8287 92.0235 18.0083 92.1935 18.1551C92.3634 18.3018 92.655 18.4196 93.0682 18.5084L94.6786 18.8328C95.5436 19.0105 96.1886 19.2963 96.6134 19.6902C97.0382 20.0841 97.2506 20.6016 97.2506 21.2426C97.2506 21.8258 97.0787 22.3375 96.735 22.7777C96.3952 23.218 95.9279 23.5617 95.3332 23.8088C94.7423 24.0521 94.0607 24.1738 93.2883 24.1738C92.1104 24.1738 91.172 23.9286 90.473 23.4381C89.7779 22.9438 89.3704 22.2718 89.2507 21.4222L91.6779 21.2948C91.7513 21.6539 91.9289 21.9281 92.2108 22.1173C92.4928 22.3027 92.8538 22.3954 93.2941 22.3954C93.7266 22.3954 94.0742 22.3124 94.3368 22.1463C94.6033 21.9764 94.7384 21.7582 94.7423 21.4917C94.7384 21.2677 94.6438 21.0843 94.4584 20.9414C94.2731 20.7947 93.9873 20.6827 93.6011 20.6054L92.0602 20.2984C91.1913 20.1246 90.5444 19.8234 90.1196 19.3947C89.6987 18.9661 89.4882 18.4196 89.4882 17.7554C89.4882 17.1838 89.6427 16.6914 89.9516 16.2782C90.2645 15.865 90.7028 15.5464 91.2666 15.3224C91.8343 15.0984 92.4985 14.9864 93.2593 14.9864C94.3831 14.9864 95.2675 15.2239 95.9124 15.6989C96.5612 16.1739 96.9397 16.8208 97.0478 17.6395ZM103.951 24H101.263L105.359 12.1364H108.591L112.681 24H109.993L107.021 14.8474H106.929L103.951 24ZM103.783 19.3368H110.132V21.2948H103.783V19.3368ZM113.75 24V15.1023H116.218V24H113.75ZM114.99 13.9553C114.623 13.9553 114.308 13.8337 114.046 13.5904C113.787 13.3432 113.658 13.0478 113.658 12.7041C113.658 12.3642 113.787 12.0726 114.046 11.8293C114.308 11.5822 114.623 11.4586 114.99 11.4586C115.357 11.4586 115.67 11.5822 115.928 11.8293C116.191 12.0726 116.322 12.3642 116.322 12.7041C116.322 13.0478 116.191 13.3432 115.928 13.5904C115.67 13.8337 115.357 13.9553 114.99 13.9553Z" fill="#202B38"/>
<path d="M14 28.25C15.2426 28.25 16.25 27.2426 16.25 26C16.25 24.7574 15.2426 23.75 14 23.75C12.7574 23.75 11.75 24.7574 11.75 26C11.75 27.2426 12.7574 28.25 14 28.25Z" fill="#1A5EFF" stroke="#1A5EFF" stroke-width="0.5"/>
<path d="M23.4996 34.25H23.5C28.6592 34.25 32.9359 30.2189 33.2336 25.0725L33.248 24.8229L32.9985 24.8084L31.0015 24.6924L30.7519 24.6779L30.7374 24.9276C30.5161 28.7529 27.337 31.7499 23.5003 31.75C22.3463 31.7486 21.2092 31.4724 20.1831 30.9444C19.157 30.4163 18.2713 29.6516 17.5993 28.7134L17.4537 28.5103L17.2505 28.6557L15.6245 29.8197L15.4211 29.9654L15.5668 30.1687C16.4707 31.4293 17.6614 32.4569 19.0408 33.1665C20.4201 33.8762 21.9484 34.2476 23.4996 34.25Z" fill="#1A5EFF" stroke="#1A5EFF" stroke-width="0.5"/>
<path d="M38 29C39.1046 29 40 28.1046 40 27C40 25.8954 39.1046 25 38 25C36.8954 25 36 25.8954 36 27C36 28.1046 36.8954 29 38 29Z" fill="#1A5EFF"/>
<mask id="path-5-outside-1_9_491" maskUnits="userSpaceOnUse" x="20" y="9.99994" width="22" height="16" fill="black">
<rect fill="white" x="20" y="9.99994" width="22" height="16"/>
<path d="M40.641 23.095L38.717 22.55C38.9056 21.883 39.0008 21.1931 39 20.5C39 16.365 35.636 13 31.5 13C30.4349 12.9962 29.3816 13.2223 28.412 13.663L27.588 11.841C28.8165 11.2831 30.1508 10.9963 31.5 11C36.738 11 41 15.262 41 20.5C41 21.38 40.88 22.254 40.641 23.095ZM30.414 18.585L27.414 15.585C27.037 15.209 26.534 15 26 15C25.466 15 24.963 15.208 24.586 15.586L21.586 18.586C21.196 18.976 21 19.488 21 20C21 20.512 21.196 21.024 21.586 21.414L24.586 24.414C24.963 24.792 25.466 25 26 25C26.534 25 27.037 24.792 27.414 24.414L30.414 21.414C30.804 21.024 31 20.512 31 20C31 19.488 30.804 18.976 30.414 18.586M26 23L23 20L26 17L29 20L26 23Z"/>
</mask>
<path d="M40.641 23.095L38.717 22.55C38.9056 21.883 39.0008 21.1931 39 20.5C39 16.365 35.636 13 31.5 13C30.4349 12.9962 29.3816 13.2223 28.412 13.663L27.588 11.841C28.8165 11.2831 30.1508 10.9963 31.5 11C36.738 11 41 15.262 41 20.5C41 21.38 40.88 22.254 40.641 23.095ZM30.414 18.585L27.414 15.585C27.037 15.209 26.534 15 26 15C25.466 15 24.963 15.208 24.586 15.586L21.586 18.586C21.196 18.976 21 19.488 21 20C21 20.512 21.196 21.024 21.586 21.414L24.586 24.414C24.963 24.792 25.466 25 26 25C26.534 25 27.037 24.792 27.414 24.414L30.414 21.414C30.804 21.024 31 20.512 31 20C31 19.488 30.804 18.976 30.414 18.586M26 23L23 20L26 17L29 20L26 23Z" fill="#1A5EFF"/>
<path d="M40.641 23.095L40.5047 23.576L40.9854 23.7122L41.122 23.2317L40.641 23.095ZM38.717 22.55L38.2359 22.4139L38.0999 22.8948L38.5807 23.031L38.717 22.55ZM39 20.5L38.5 20.5L38.5 20.5006L39 20.5ZM31.5 13L31.4982 13.5H31.5V13ZM28.412 13.663L27.9564 13.869L28.1628 14.3254L28.6189 14.1182L28.412 13.663ZM27.588 11.841L27.3813 11.3857L26.9267 11.5921L27.1324 12.047L27.588 11.841ZM31.5 11L31.4986 11.5H31.5V11ZM27.414 15.585L27.7676 15.2314L27.7671 15.231L27.414 15.585ZM24.586 15.586L24.9396 15.9395L24.94 15.9391L24.586 15.586ZM24.586 24.414L24.94 24.0609L24.9396 24.0604L24.586 24.414ZM27.414 24.414L27.0604 24.0604L27.06 24.0609L27.414 24.414ZM26 23L25.6464 23.3535L26 23.7071L26.3536 23.3535L26 23ZM23 20L22.6464 19.6464L22.2929 20L22.6464 20.3535L23 20ZM26 17L26.3536 16.6464L26 16.2929L25.6464 16.6464L26 17ZM29 20L29.3536 20.3535L29.7071 20L29.3536 19.6464L29 20ZM40.7773 22.6139L38.8533 22.0689L38.5807 23.031L40.5047 23.576L40.7773 22.6139ZM39.1981 22.686C39.3993 21.9746 39.5009 21.2387 39.5 20.4994L38.5 20.5006C38.5008 21.1475 38.4119 21.7914 38.2359 22.4139L39.1981 22.686ZM39.5 20.5C39.5 16.0889 35.9122 12.5 31.5 12.5V13.5C35.3598 13.5 38.5 16.6411 38.5 20.5H39.5ZM31.5018 12.5C30.3648 12.4959 29.2403 12.7374 28.2051 13.2078L28.6189 14.1182C29.523 13.7073 30.5051 13.4964 31.4982 13.5L31.5018 12.5ZM28.8676 13.4569L28.0436 11.6349L27.1324 12.047L27.9564 13.869L28.8676 13.4569ZM27.7947 12.2962C28.9579 11.7681 30.2212 11.4965 31.4986 11.5L31.5014 10.5C30.0803 10.4961 28.6752 10.7982 27.3813 11.3857L27.7947 12.2962ZM31.5 11.5C36.4619 11.5 40.5 15.5381 40.5 20.5H41.5C41.5 14.9858 37.0141 10.5 31.5 10.5V11.5ZM40.5 20.5C40.5 21.3346 40.3862 22.1625 40.16 22.9583L41.122 23.2317C41.3738 22.3454 41.5 21.4254 41.5 20.5H40.5ZM30.7676 18.2314L27.7676 15.2314L27.0604 15.9385L30.0604 18.9385L30.7676 18.2314ZM27.7671 15.231C27.2967 14.7618 26.6668 14.5 26 14.5V15.5C26.4012 15.5 26.7773 15.6561 27.0609 15.939L27.7671 15.231ZM26 14.5C25.3337 14.5 24.7031 14.7605 24.232 15.2329L24.94 15.9391C25.2229 15.6555 25.5983 15.5 26 15.5V14.5ZM24.2324 15.2324L21.2324 18.2324L21.9396 18.9395L24.9396 15.9395L24.2324 15.2324ZM21.2324 18.2324C20.7451 18.7197 20.5 19.3605 20.5 20H21.5C21.5 19.6155 21.6469 19.2322 21.9396 18.9395L21.2324 18.2324ZM20.5 20C20.5 20.6395 20.7451 21.2802 21.2324 21.7675L21.9396 21.0604C21.6469 20.7677 21.5 20.3845 21.5 20H20.5ZM21.2324 21.7675L24.2324 24.7675L24.9396 24.0604L21.9396 21.0604L21.2324 21.7675ZM24.232 24.7671C24.7031 25.2395 25.3337 25.5 26 25.5V24.5C25.5983 24.5 25.2229 24.3445 24.94 24.0609L24.232 24.7671ZM26 25.5C26.6663 25.5 27.2969 25.2395 27.768 24.7671L27.06 24.0609C26.7771 24.3445 26.4017 24.5 26 24.5V25.5ZM27.7676 24.7675L30.7676 21.7675L30.0604 21.0604L27.0604 24.0604L27.7676 24.7675ZM30.7676 21.7675C31.2549 21.2802 31.5 20.6395 31.5 20H30.5C30.5 20.3845 30.3531 20.7677 30.0604 21.0604L30.7676 21.7675ZM31.5 20C31.5 19.3605 31.2549 18.7197 30.7676 18.2324L30.0604 18.9395C30.3531 19.2322 30.5 19.6155 30.5 20H31.5ZM26.3536 22.6464L23.3536 19.6464L22.6464 20.3535L25.6464 23.3535L26.3536 22.6464ZM23.3536 20.3535L26.3536 17.3535L25.6464 16.6464L22.6464 19.6464L23.3536 20.3535ZM25.6464 17.3535L28.6464 20.3535L29.3536 19.6464L26.3536 16.6464L25.6464 17.3535ZM28.6464 19.6464L25.6464 22.6464L26.3536 23.3535L29.3536 20.3535L28.6464 19.6464Z" fill="#1A5EFF" mask="url(#path-5-outside-1_9_491)"/>
<path d="M26 9.25C27.2426 9.25 28.25 8.24264 28.25 7C28.25 5.75736 27.2426 4.75 26 4.75C24.7574 4.75 23.75 5.75736 23.75 7C23.75 8.24264 24.7574 9.25 26 9.25Z" fill="#1A5EFF" stroke="#1A5EFF" stroke-width="0.5"/>
<path d="M12.75 15.4999C12.7485 17.2667 13.2277 19.0007 14.1362 20.5161C15.0447 22.0315 16.3483 23.2713 17.9074 24.1026L18.1276 24.22L18.2454 23.9999L19.1894 22.2359L19.3074 22.0154L19.0868 21.8975C17.6936 21.1529 16.5816 19.9737 15.9199 18.5392C15.2582 17.1047 15.0831 15.4934 15.421 13.9502C15.759 12.4071 16.5916 11.0165 17.7922 9.98982C18.9929 8.96319 20.496 8.3567 22.0729 8.26255L22.3221 8.24767L22.3076 7.99849L22.1916 6.00149L22.1771 5.75193L21.9275 5.76641C16.7811 6.06509 12.7501 10.3407 12.75 15.4999ZM12.75 15.4999C12.75 15.4999 12.75 15.5 12.75 15.5H13L12.75 15.4998C12.75 15.4998 12.75 15.4999 12.75 15.4999ZM17.806 23.7615L17.8046 23.764L17.9996 23.8684C17.9346 23.8335 17.87 23.7978 17.806 23.7615Z" fill="#1A5EFF" stroke="#1A5EFF" stroke-width="0.5"/>
</svg>
