<svg width="32" height="32" viewBox="0 0 32 32" fill="none" xmlns="http://www.w3.org/2000/svg">
<path d="M4 24.25C5.24264 24.25 6.25 23.2426 6.25 22C6.25 20.7574 5.24264 19.75 4 19.75C2.75736 19.75 1.75 20.7574 1.75 22C1.75 23.2426 2.75736 24.25 4 24.25Z" fill="#1A5EFF" stroke="#1A5EFF" stroke-width="0.5"/>
<path d="M13.4996 30.2499H13.5C18.6592 30.2499 22.9359 26.2188 23.2336 21.0723L23.248 20.8228L22.9985 20.8083L21.0015 20.6923L20.7519 20.6778L20.7374 20.9275C20.5161 24.7528 17.337 27.7497 13.5003 27.7499C12.3463 27.7484 11.2092 27.4723 10.1831 26.9442C9.15695 26.4162 8.27126 25.6515 7.59926 24.7133L7.45372 24.5101L7.2505 24.6556L5.6245 25.8196L5.42107 25.9652L5.56685 26.1686C6.47069 27.4292 7.66144 28.4568 9.04077 29.1664C10.4201 29.8761 11.9484 30.2475 13.4996 30.2499Z" fill="#1A5EFF" stroke="#1A5EFF" stroke-width="0.5"/>
<path d="M28 25C29.1046 25 30 24.1046 30 23C30 21.8954 29.1046 21 28 21C26.8954 21 26 21.8954 26 23C26 24.1046 26.8954 25 28 25Z" fill="#1A5EFF"/>
<mask id="path-4-outside-1_9_4289" maskUnits="userSpaceOnUse" x="10" y="6" width="22" height="16" fill="black">
<rect fill="white" x="10" y="6" width="22" height="16"/>
<path d="M30.641 19.095L28.717 18.55C28.9056 17.8831 29.0008 17.1932 29 16.5C29 12.365 25.636 9.00003 21.5 9.00003C20.4349 8.99624 19.3816 9.22239 18.412 9.66303L17.588 7.84103C18.8165 7.28319 20.1508 6.99636 21.5 7.00003C26.738 7.00003 31 11.262 31 16.5C31 17.38 30.88 18.254 30.641 19.095ZM20.414 14.585L17.414 11.585C17.037 11.209 16.534 11 16 11C15.466 11 14.963 11.208 14.586 11.586L11.586 14.586C11.196 14.976 11 15.488 11 16C11 16.512 11.196 17.024 11.586 17.414L14.586 20.414C14.963 20.792 15.466 21 16 21C16.534 21 17.037 20.792 17.414 20.414L20.414 17.414C20.804 17.024 21 16.512 21 16C21 15.488 20.804 14.976 20.414 14.586M16 19L13 16L16 13L19 16L16 19Z"/>
</mask>
<path d="M30.641 19.095L28.717 18.55C28.9056 17.8831 29.0008 17.1932 29 16.5C29 12.365 25.636 9.00003 21.5 9.00003C20.4349 8.99624 19.3816 9.22239 18.412 9.66303L17.588 7.84103C18.8165 7.28319 20.1508 6.99636 21.5 7.00003C26.738 7.00003 31 11.262 31 16.5C31 17.38 30.88 18.254 30.641 19.095ZM20.414 14.585L17.414 11.585C17.037 11.209 16.534 11 16 11C15.466 11 14.963 11.208 14.586 11.586L11.586 14.586C11.196 14.976 11 15.488 11 16C11 16.512 11.196 17.024 11.586 17.414L14.586 20.414C14.963 20.792 15.466 21 16 21C16.534 21 17.037 20.792 17.414 20.414L20.414 17.414C20.804 17.024 21 16.512 21 16C21 15.488 20.804 14.976 20.414 14.586M16 19L13 16L16 13L19 16L16 19Z" fill="#1A5EFF"/>
<path d="M30.641 19.095L30.5047 19.5761L30.9854 19.7123L31.122 19.2317L30.641 19.095ZM28.717 18.55L28.2359 18.414L28.0999 18.8949L28.5807 19.0311L28.717 18.55ZM29 16.5H28.5V16.5006L29 16.5ZM21.5 9.00003L21.4982 9.50003H21.5V9.00003ZM18.412 9.66303L17.9564 9.86907L18.1628 10.3255L18.6189 10.1182L18.412 9.66303ZM17.588 7.84103L17.3813 7.38577L16.9267 7.59218L17.1324 8.04707L17.588 7.84103ZM21.5 7.00003L21.4986 7.50003H21.5V7.00003ZM17.414 11.585L17.7676 11.2315L17.7671 11.231L17.414 11.585ZM14.586 11.586L14.9396 11.9396L14.94 11.9391L14.586 11.586ZM14.586 20.414L14.94 20.0609L14.9396 20.0605L14.586 20.414ZM17.414 20.414L17.0604 20.0605L17.06 20.061L17.414 20.414ZM16 19L15.6464 19.3536L16 19.7071L16.3536 19.3536L16 19ZM13 16L12.6464 15.6465L12.2929 16L12.6464 16.3536L13 16ZM16 13L16.3536 12.6465L16 12.2929L15.6464 12.6465L16 13ZM19 16L19.3536 16.3536L19.7071 16L19.3536 15.6465L19 16ZM30.7773 18.614L28.8533 18.069L28.5807 19.0311L30.5047 19.5761L30.7773 18.614ZM29.1981 18.6861C29.3993 17.9747 29.5009 17.2388 29.5 16.4994L28.5 16.5006C28.5008 17.1476 28.4119 17.7915 28.2359 18.414L29.1981 18.6861ZM29.5 16.5C29.5 12.0889 25.9122 8.50003 21.5 8.50003V9.50003C25.3598 9.50003 28.5 12.6411 28.5 16.5H29.5ZM21.5018 8.50004C20.3648 8.49598 19.2403 8.73741 18.2051 9.20784L18.6189 10.1182C19.523 9.70736 20.5051 9.49649 21.4982 9.50003L21.5018 8.50004ZM18.8676 9.457L18.0436 7.635L17.1324 8.04707L17.9564 9.86907L18.8676 9.457ZM17.7947 8.2963C18.9579 7.76813 20.2212 7.49655 21.4986 7.50003L21.5014 6.50004C20.0803 6.49617 18.6752 6.79825 17.3813 7.38577L17.7947 8.2963ZM21.5 7.50003C26.4619 7.50003 30.5 11.5382 30.5 16.5H31.5C31.5 10.9859 27.0141 6.50003 21.5 6.50003V7.50003ZM30.5 16.5C30.5 17.3346 30.3862 18.1626 30.16 18.9584L31.122 19.2317C31.3738 18.3455 31.5 17.4254 31.5 16.5H30.5ZM20.7676 14.2315L17.7676 11.2315L17.0604 11.9386L20.0604 14.9386L20.7676 14.2315ZM17.7671 11.231C17.2967 10.7619 16.6668 10.5 16 10.5V11.5C16.4012 11.5 16.7773 11.6562 17.0609 11.9391L17.7671 11.231ZM16 10.5C15.3337 10.5 14.7031 10.7605 14.232 11.233L14.94 11.9391C15.2229 11.6555 15.5983 11.5 16 11.5V10.5ZM14.2324 11.2325L11.2324 14.2325L11.9396 14.9396L14.9396 11.9396L14.2324 11.2325ZM11.2324 14.2325C10.7451 14.7198 10.5 15.3605 10.5 16H11.5C11.5 15.6155 11.6469 15.2323 11.9396 14.9396L11.2324 14.2325ZM10.5 16C10.5 16.6395 10.7451 17.2803 11.2324 17.7676L11.9396 17.0605C11.6469 16.7678 11.5 16.3845 11.5 16H10.5ZM11.2324 17.7676L14.2324 20.7676L14.9396 20.0605L11.9396 17.0605L11.2324 17.7676ZM14.232 20.7671C14.7031 21.2395 15.3337 21.5 16 21.5V20.5C15.5983 20.5 15.2229 20.3445 14.94 20.061L14.232 20.7671ZM16 21.5C16.6663 21.5 17.2969 21.2395 17.768 20.7671L17.06 20.061C16.7771 20.3445 16.4017 20.5 16 20.5V21.5ZM17.7676 20.7676L20.7676 17.7676L20.0604 17.0605L17.0604 20.0605L17.7676 20.7676ZM20.7676 17.7676C21.2549 17.2803 21.5 16.6395 21.5 16H20.5C20.5 16.3845 20.3531 16.7678 20.0604 17.0605L20.7676 17.7676ZM21.5 16C21.5 15.3605 21.2549 14.7198 20.7676 14.2325L20.0604 14.9396C20.3531 15.2323 20.5 15.6155 20.5 16H21.5ZM16.3536 18.6465L13.3536 15.6465L12.6464 16.3536L15.6464 19.3536L16.3536 18.6465ZM13.3536 16.3536L16.3536 13.3536L15.6464 12.6465L12.6464 15.6465L13.3536 16.3536ZM15.6464 13.3536L18.6464 16.3536L19.3536 15.6465L16.3536 12.6465L15.6464 13.3536ZM18.6464 15.6465L15.6464 18.6465L16.3536 19.3536L19.3536 16.3536L18.6464 15.6465Z" fill="#1A5EFF" mask="url(#path-4-outside-1_9_4289)"/>
<path d="M16 5.25C17.2426 5.25 18.25 4.24264 18.25 3C18.25 1.75736 17.2426 0.75 16 0.75C14.7574 0.75 13.75 1.75736 13.75 3C13.75 4.24264 14.7574 5.25 16 5.25Z" fill="#1A5EFF" stroke="#1A5EFF" stroke-width="0.5"/>
<path d="M2.75 11.5C2.74853 13.2669 3.2277 15.0008 4.13617 16.5162C5.04467 18.0316 6.34828 19.2714 7.90738 20.1027L8.12765 20.2202L8.24542 20.0001L9.18942 18.2361L9.30745 18.0155L9.08684 17.8976C7.6936 17.153 6.58161 15.9738 5.91992 14.5393C5.25824 13.1048 5.08305 11.4935 5.42101 9.95036C5.75896 8.40719 6.59157 7.01658 7.79224 5.98995C8.99291 4.96332 10.496 4.35682 12.0729 4.26267L12.3221 4.24779L12.3076 3.99862L12.1916 2.00162L12.1771 1.75205L11.9275 1.76653C6.78114 2.06522 2.75006 6.3408 2.75 11.5ZM2.75 11.5C2.75 11.5 2.75 11.5001 2.75 11.5001H3L2.75 11.4999C2.75 11.4999 2.75 11.5 2.75 11.5ZM7.80596 19.7616L7.80458 19.7642L7.99961 19.8685C7.9346 19.8336 7.87004 19.798 7.80596 19.7616Z" fill="#1A5EFF" stroke="#1A5EFF" stroke-width="0.5"/>
</svg>
